<?xml version="1.0" encoding="utf-8"?>
<!-- Generator: Adobe Illustrator 25.0.0, SVG Export Plug-In . SVG Version: 6.00 Build 0)  -->
<svg version="1.1" id="Layer_2" xmlns="http://www.w3.org/2000/svg" xmlns:xlink="http://www.w3.org/1999/xlink" x="0px" y="0px"
	 viewBox="0 0 64 64" style="enable-background:new 0 0 64 64;" xml:space="preserve">
<style type="text/css">
	.st0{fill:#FFFFFF;}
</style>
<g id="XMLID_1226_">
	<path id="XMLID_1229_" class="st0" d="M53.9,12h-8.4V3c0-1-0.5-1.9-1.3-2.5c-0.8-0.6-1.8-0.7-2.8-0.3l-32.3,12l0,0
		c-1.1,0.4-2,1.5-2,2.8v46c0,1.7,1.3,3,3,3h43.8c1.7,0,3-1.3,3-3V15C56.9,13.3,55.5,12,53.9,12z M39.5,12H26.8l12.6-4.7V12z
		 M50.9,58H13.1V18h37.8V58z"/>
	<path id="XMLID_1234_" class="st0" d="M23.8,44.7c0.6,0.4,1.1,0.7,1.6,1c1.5,0.9,2.4,1.5,4.6,3.5l2,1.8l2-1.8
		c2.1-1.9,3.1-2.5,4.6-3.5c0.5-0.3,1-0.6,1.6-1c3.8-2.5,5.7-6.2,5.1-10.3c-0.5-3.7-2.9-6.8-6.1-7.8c-3-1-5.6-0.3-7.3,0.7
		c-1.8-1-4.3-1.7-7.2-0.8c-3.1,1-5.6,4.1-6.1,7.7C18.1,38.3,20,42.2,23.8,44.7z M24.6,35.1c0.2-1.5,1.1-2.6,1.9-2.8
		c0.4-0.1,0.7-0.2,1-0.2c1.3,0,2,0.8,2.2,0.9l2.4,3.1l2.3-3.1c0.3-0.3,1.2-1.3,3.1-0.7c0.8,0.3,1.8,1.4,1.9,2.9
		c0.2,1.2-0.1,3-2.5,4.5c-0.6,0.4-1.1,0.7-1.5,1c-1.1,0.7-2.1,1.3-3.4,2.4c-1.4-1.1-2.3-1.7-3.5-2.4c-0.4-0.3-0.9-0.6-1.5-0.9
		C24.7,38.1,24.4,36.3,24.6,35.1z"/>
</g>
</svg>
