<?xml version="1.0" encoding="utf-8"?>
<!-- Generator: Adobe Illustrator 25.0.0, SVG Export Plug-In . SVG Version: 6.00 Build 0)  -->
<svg version="1.1" id="Layer_2" xmlns="http://www.w3.org/2000/svg" xmlns:xlink="http://www.w3.org/1999/xlink" x="0px" y="0px"
	 viewBox="0 0 64 64" style="enable-background:new 0 0 64 64;" xml:space="preserve">
<style type="text/css">
	.st0{fill:#FFFFFF;}
</style>
<g id="XMLID_1151_">
	<g id="XMLID_638_">
		<path id="XMLID_1166_" class="st0" d="M32,64c-0.5,0-1-0.1-1.5-0.4c-1-0.6-24.7-13.9-24.7-37.5C5.9,11.7,17.6,0,32,0
			c14.4,0,26.1,11.7,26.1,26.1c0,24.5-23.7,37-24.7,37.5C32.9,63.9,32.5,64,32,64z M32,6c-11.1,0-20.1,9-20.1,20.1
			c0,17,15.4,28.3,20.2,31.4c4.8-3,20.1-13.8,20.1-31.4C52.1,15,43.1,6,32,6z"/>
	</g>
	<g id="XMLID_634_">
		<path id="XMLID_1157_" class="st0" d="M32,38.7l-2-1.8c-2.2-2-3.1-2.6-4.6-3.5c-0.5-0.3-1-0.6-1.6-1c-3.8-2.5-5.7-6.3-5.1-10.4
			c0.5-3.7,3-6.8,6.1-7.7c2.9-0.9,5.4-0.3,7.2,0.8c1.8-1.1,4.3-1.7,7.3-0.7c3.1,1,5.6,4.1,6.1,7.8c0.6,4.1-1.3,7.9-5.1,10.3
			c-0.6,0.4-1.1,0.7-1.6,1c-1.5,1-2.5,1.5-4.6,3.5L32,38.7z M27.5,19.9c-0.3,0-0.6,0-1,0.2c-0.8,0.2-1.7,1.4-1.9,2.8
			c-0.2,1.2,0.1,3,2.5,4.5c0.6,0.4,1.1,0.7,1.5,0.9c1.2,0.7,2.1,1.3,3.5,2.4c1.3-1.1,2.3-1.7,3.5-2.4c0.4-0.3,0.9-0.6,1.5-1
			c2.3-1.5,2.6-3.3,2.5-4.5c-0.2-1.5-1.1-2.6-1.9-2.9c-2-0.7-3,0.7-3,0.7l-2.3,3.1l-2.4-3C29.5,20.6,28.8,19.9,27.5,19.9z"/>
	</g>
</g>
</svg>
