<?xml version="1.0" encoding="utf-8"?>
<!-- Generator: Adobe Illustrator 25.0.0, SVG Export Plug-In . SVG Version: 6.00 Build 0)  -->
<svg version="1.1" id="Layer_2" xmlns="http://www.w3.org/2000/svg" xmlns:xlink="http://www.w3.org/1999/xlink" x="0px" y="0px"
	 viewBox="0 0 64 64" style="enable-background:new 0 0 64 64;" xml:space="preserve">
<style type="text/css">
	.st0{fill:#FFFFFF;}
</style>
<path id="XMLID_1033_" class="st0" d="M62.9,0.8c-0.7-0.6-1.6-0.8-2.5-0.6L22.3,8.5c-1.4,0.3-2.4,1.5-2.4,2.9v31
	c-2.2-0.9-4.8-1.2-7.5-0.7C5.5,42.9,0,48.6,0,54.5c0,2.8,1.2,5.2,3.3,7c2,1.7,4.7,2.6,7.6,2.6c0.9,0,1.7-0.1,2.6-0.2
	c7-1.2,12.4-6.9,12.4-12.8V25.4L58,18.5v15.6c-2.2-0.9-4.8-1.2-7.5-0.7c-7,1.2-12.4,6.9-12.4,12.8c0,2.8,1.2,5.2,3.3,7
	c2,1.7,4.7,2.6,7.6,2.6c0.9,0,1.7-0.1,2.6-0.2c7-1.2,12.4-6.9,12.4-12.8V3.1C64,2.2,63.6,1.3,62.9,0.8z M12.4,58
	c-2.1,0.4-4.1,0-5.3-1C6.4,56.3,6,55.5,6,54.5c0-3,3.5-6.2,7.5-6.9c0.5-0.1,1.1-0.1,1.6-0.1c1.5,0,2.8,0.4,3.7,1.2
	c0.8,0.6,1.1,1.4,1.1,2.4C19.9,54,16.4,57.3,12.4,58z M25.9,19.3v-5.5l32.1-7v5.6L25.9,19.3z M50.5,49.7c-2.1,0.4-4.1,0-5.3-1
	c-0.8-0.6-1.1-1.4-1.1-2.4c0-3,3.5-6.2,7.5-6.9c0.5-0.1,1.1-0.1,1.6-0.1c1.5,0,2.8,0.4,3.7,1.2c0.8,0.6,1.1,1.4,1.1,2.4
	C58,45.7,54.5,49,50.5,49.7z"/>
</svg>
