<svg id="Layer_1" data-name="Layer 1" xmlns="http://www.w3.org/2000/svg" viewBox="0 0 300 300"><defs><style>.cls-1{fill:#9c6fa7;}.cls-2{fill:#fff6f1;}.cls-3{fill:#f1ccc8;}.cls-4{fill:#d6cd6d;}</style></defs><path class="cls-1" d="M297.76,279.19l-22.1-2.05L257.72,212l1.32-.36a48.77,48.77,0,0,0,34.06-60L267.67,59.4h0l-1.53-5.53a3.83,3.83,0,0,0-4.73-2.68L164.2,78h0l-11.3,3.12a3.85,3.85,0,0,0-2.8,3.21,4,4,0,0,0,.11,1.52l13.48,48.91,13.47,48.92a.42.42,0,0,1,0,.1c.44,1.57.94,3.09,1.51,4.58.21.53.47,1,.69,1.56.41,1,.81,1.93,1.28,2.86.31.6.67,1.17,1,1.76.45.8.87,1.61,1.36,2.38.39.61.82,1.17,1.24,1.76s1,1.41,1.48,2.08,1,1.14,1.46,1.71,1,1.24,1.59,1.82,1.11,1.08,1.67,1.62,1.1,1.08,1.68,1.58,1.24,1,1.86,1.49,1.16.94,1.77,1.37,1.36.9,2,1.34,1.2.8,1.83,1.16,1.47.79,2.22,1.18,1.23.65,1.86.94,1.57.67,2.36,1,1.27.52,1.91.75c.82.28,1.65.52,2.49.77.64.19,1.29.39,1.94.55.86.22,1.73.38,2.6.55.65.12,1.3.26,2,.36.89.13,1.78.21,2.68.3.66.06,1.32.13,2,.16.9,0,1.81,0,2.72,0,.67,0,1.35,0,2,0,.92,0,1.83-.13,2.75-.22.68-.08,1.36-.15,2-.25.92-.13,1.83-.31,2.74-.49.43-.09.85-.14,1.28-.24v-.05c.65-.15,1.29-.25,1.93-.42l1.31-.36,17.94,65.1-17.92,13.08a2.47,2.47,0,0,0,2.11,4.37L298.19,284A2.47,2.47,0,0,0,297.76,279.19Z"/><path class="cls-2" d="M147.1,81.09,49.3,54.14h0l-10.71-3a3.83,3.83,0,0,0-4.73,2.68L32.33,59.4h0L6.9,151.7a48.55,48.55,0,0,0-1.06,4.8c-.1.54-.13,1.09-.2,1.63-.15,1.06-.3,2.12-.38,3.17,0,.64,0,1.27,0,1.91,0,.95-.08,1.9,0,2.84,0,.68.09,1.36.14,2,.07.89.11,1.78.22,2.66.09.7.23,1.38.35,2.06.14.85.27,1.7.46,2.53s.37,1.38.55,2.07.43,1.61.68,2.4.51,1.37.76,2,.56,1.51.89,2.26.63,1.33,1,2,.69,1.43,1.08,2.13.76,1.28,1.15,1.92.82,1.34,1.26,2,.89,1.23,1.35,1.84.93,1.24,1.43,1.84,1,1.15,1.52,1.71,1.05,1.16,1.61,1.71,1.11,1.06,1.68,1.57,1.16,1,1.76,1.54,1.23,1,1.87,1.43,1.25.93,1.9,1.36,1.33.86,2,1.26,1.35.81,2.05,1.18,1.43.73,2.16,1.08,1.44.67,2.18,1,1.52.6,2.29.88c.41.15.79.33,1.21.46l-.13-.1c.8.26,1.58.57,2.4.79l1.32.36-2.76,10h0l-15.18,55.1-22.1,2.05A2.47,2.47,0,0,0,1.81,284L59.42,299.9a2.47,2.47,0,0,0,2.11-4.37L43.61,282.45l17.94-65.1,1.31.36a48.77,48.77,0,0,0,60-34.06l27-97.83A3.84,3.84,0,0,0,147.1,81.09Z"/><path class="cls-1" d="M147.1,81.09,38.59,51.19a3.83,3.83,0,0,0-4.73,2.69L6.9,151.7a48.77,48.77,0,0,0,34.06,60l1.32.36L24.34,277.14l-22.1,2.05A2.47,2.47,0,0,0,1.81,284L59.42,299.9a2.47,2.47,0,0,0,2.11-4.37L43.61,282.45l17.94-65.1,1.31.36a48.79,48.79,0,0,0,60-34.06l26.95-97.83A3.84,3.84,0,0,0,147.1,81.09Z"/><path class="cls-3" d="M102.92,133.8c-8.38-.06-17.59-3-26.56-6.08-10-3.42-19.61-7-27.47-7.08-15-.11-28.34,6.69-28.34,6.69l-7.21,26.14a42.15,42.15,0,0,0,29.4,51.77l21.89,6a42.06,42.06,0,0,0,51.77-29.4l14.81-53.76S120.61,133.93,102.92,133.8Z"/><path class="cls-3" d="M197.08,133.8c8.38-.06,17.59-3,26.56-6.08,10-3.42,19.61-7,27.47-7.08,15-.11,28.34,6.69,28.34,6.69l7.21,26.14a42.15,42.15,0,0,1-29.4,51.77l-21.89,6a42.06,42.06,0,0,1-51.77-29.4l-14.81-53.76S179.39,133.93,197.08,133.8Z"/><rect class="cls-4" x="147.77" width="12.45" height="44.7" rx="6.22" transform="translate(0.16 -1.09) rotate(0.41)"/><rect class="cls-4" x="99.21" y="19.71" width="12.45" height="44.7" rx="6.22" transform="translate(0.82 86.13) rotate(-44.59)"/><rect class="cls-4" x="196.05" y="20.4" width="12.45" height="44.7" rx="6.22" transform="translate(90.7 -131.3) rotate(45.41)"/></svg>