<svg id="Layer_1" data-name="Layer 1" xmlns="http://www.w3.org/2000/svg" viewBox="0 0 300 300"><defs><style>.cls-1{fill:#9c6fa7;}.cls-2{fill:#f1ccc8;}.cls-3{fill:#d6cd6d;}</style></defs><path class="cls-1" d="M267.87,129.45H238.53V54.11a9,9,0,0,0-9-9H70.47a9,9,0,0,0-9,9v75.34H32.13A8.56,8.56,0,0,0,23.57,138v69.27H276.43V138A8.56,8.56,0,0,0,267.87,129.45Z"/><path class="cls-2" d="M74.19,88.67a19,19,0,0,0,19-19,18.95,18.95,0,0,0,37.9,0,18.95,18.95,0,0,0,37.9,0,19,19,0,0,0,19,19h0a18.94,18.94,0,0,0,18.95-19,19,19,0,0,0,37.91,0V53.32h0a14.32,14.32,0,0,0-1.61-6.48,14.23,14.23,0,0,0-12.83-8H69.68A14.44,14.44,0,0,0,55.24,53.32h0v16.4A19,19,0,0,0,74.19,88.67Z"/><path class="cls-2" d="M281.52,132.05a14.43,14.43,0,0,0-13.3-8.82H31.78a14.43,14.43,0,0,0-13.3,8.82,14.17,14.17,0,0,0-1.14,5.61v16.4a19,19,0,0,0,37.9,0,19,19,0,0,0,37.91,0,19,19,0,0,0,37.9,0,18.95,18.95,0,0,0,37.9,0,19,19,0,0,0,19,18.95h0a18.94,18.94,0,0,0,18.95-18.95,19,19,0,0,0,37.91,0,19,19,0,0,0,37.9,0v-16.4A14.17,14.17,0,0,0,281.52,132.05Z"/><path class="cls-3" d="M297.32,216.72a9.43,9.43,0,0,0-9.44-9.44H12.12a9.41,9.41,0,0,0-8.9,12.55c0-.05,0-.08.07-.13a9.33,9.33,0,0,0,8.83,6.45h5.45L62.3,242.76a252.12,252.12,0,0,0,73.56,15.34v28.48L125,294.4h0l-3.34,2.4a1.76,1.76,0,0,0,1,3.2h54.68a1.76,1.76,0,0,0,1-3.2L175,294.4h0l-10.88-7.82V258.1a252.12,252.12,0,0,0,73.56-15.34l44.73-16.61h5.45a9.33,9.33,0,0,0,8.83-6.45c0,.05.05.08.07.13A9.45,9.45,0,0,0,297.32,216.72Z"/><path class="cls-1" d="M138,0c8.48-.09,11.93,5.64,11.93,5.64S153.25.09,161.73,0s14.89,7,15,13.63S175.78,25,163.57,35.38a97.15,97.15,0,0,1-13.25,9.73,97.76,97.76,0,0,1-13.44-9.45c-12.43-10.14-13.51-14.86-13.57-21.48S129.5.09,138,0Z"/></svg>