<svg id="Layer_1" data-name="Layer 1" xmlns="http://www.w3.org/2000/svg" viewBox="0 0 300 300"><defs><style>.cls-1{fill:#9c6fa7;}.cls-2{fill:none;stroke:#f1ccc8;stroke-miterlimit:10;stroke-width:3px;}.cls-3{fill:#83d2e7;}.cls-4{fill:#69cada;}.cls-5{fill:#f3b7bf;}.cls-6{fill:#fff;}</style></defs><circle class="cls-1" cx="150" cy="150" r="107.8"/><circle class="cls-2" cx="150" cy="150" r="77.61"/><path class="cls-3" d="M150,151.46a1.46,1.46,0,0,0,0-2.92,1.46,1.46,0,0,0,0,2.92Z"/><path class="cls-4" d="M19.13,251.15A9.31,9.31,0,0,1,10,243.57l-.15,4.75a9.29,9.29,0,1,0,18.58,0l-.15-4.75A9.3,9.3,0,0,1,19.13,251.15Z"/><path class="cls-5" d="M38.25,99.87,35.93,50.65h0l-.25-5.44a3.16,3.16,0,0,0-6.31.14V89.68a2.79,2.79,0,0,1-2.45,2.82,2.71,2.71,0,0,1-3-2.71l-1.09-39h0l-.15-5.13a3.56,3.56,0,0,0-7.12,0l-.14,5.13h0l-1.09,39a2.72,2.72,0,0,1-3,2.71,2.79,2.79,0,0,1-2.46-2.82V45.35A3.14,3.14,0,0,0,5.74,42.2h0a3.14,3.14,0,0,0-3.15,3l-.26,5.44h0L0,99.87a12.43,12.43,0,0,0,12.41,13H14.3L9.84,248.32a9.29,9.29,0,1,0,18.58,0L24,112.88h1.88A12.43,12.43,0,0,0,38.25,99.87Z"/><path class="cls-4" d="M274.85,251.15a9.31,9.31,0,0,1-9.14-7.58l-.15,4.75a9.3,9.3,0,1,0,18.59,0l-.16-4.75A9.29,9.29,0,0,1,274.85,251.15Z"/><path class="cls-5" d="M300,84.19c0-19.52-8.74-42-25.15-42s-24.38,22.47-24.38,42c0,1.06,0,2.1.09,3.11,0-.24,0-.48.05-.71.71,15.65,8.1,24.11,19.38,25.91l-4.43,135.82a9.3,9.3,0,1,0,18.59,0l-4.43-135.84c11.11-1.83,19.34-10.3,20.13-25.92,0,.23,0,.47,0,.71C300,86.27,300,85.24,300,84.19Z"/><path class="cls-6" d="M135.5,122.85c10.22-.11,14.37,6.79,14.37,6.79s4-6.69,14.24-6.79,17.93,8.45,18,16.41-1.1,13.68-15.81,26.2a117.29,117.29,0,0,1-16,11.73,117.51,117.51,0,0,1-16.19-11.39c-15-12.22-16.26-17.9-16.35-25.87S125.28,123,135.5,122.85Z"/></svg>