<svg id="Layer_1" data-name="Layer 1" xmlns="http://www.w3.org/2000/svg" viewBox="0 0 300 300"><defs><style>.cls-1{fill:#646db2;}.cls-2{fill:#b88fc1;}.cls-3{fill:#9c6fa7;}.cls-4{fill:#b87cb4;}.cls-5{fill:#c489bc;}.cls-6{fill:#f3b7bf;}.cls-7{fill:#d6cd6d;}</style></defs><path class="cls-1" d="M177.43,134.24a94.72,94.72,0,1,0-22.59,119.12,88.27,88.27,0,0,1-15.78-18.11,70.61,70.61,0,1,1,16.57-19.19,64,64,0,0,0,15.68,19.81,94.54,94.54,0,0,0,6.12-101.63Z"/><path class="cls-2" d="M177.43,134.24a94.72,94.72,0,1,0-22.59,119.12,88.27,88.27,0,0,1-15.78-18.11,70.61,70.61,0,1,1,16.57-19.19,64,64,0,0,0,15.68,19.81,94.54,94.54,0,0,0,6.12-101.63Z"/><path class="cls-3" d="M212.39,99.74a87.18,87.18,0,0,0-49.23,15.18A88.22,88.22,0,0,0,145.35,131a87.46,87.46,0,0,0-6.29,104.24,70.92,70.92,0,0,0,16.57-19.19,63.53,63.53,0,0,1,3.87-64,64,64,0,0,1,17.93-17.81,63.61,63.61,0,1,1-6.12,101.63,95.84,95.84,0,0,1-16.47,17.49A87.6,87.6,0,1,0,212.39,99.74Z"/><path class="cls-2" d="M171.31,235.87a95.84,95.84,0,0,1-16.47,17.49,88.27,88.27,0,0,1-15.78-18.11,70.92,70.92,0,0,0,16.57-19.19A64,64,0,0,0,171.31,235.87Z"/><rect class="cls-4" x="195.14" y="96.07" width="34.49" height="13.5" rx="3.02"/><path class="cls-5" d="M226.62,96.07H198.16a3,3,0,0,0-3,3v5.4a3,3,0,0,1,3-3h28.46a3,3,0,0,1,3,3v-5.4A3,3,0,0,0,226.62,96.07Z"/><polygon class="cls-6" points="241.63 70.43 229.63 50.79 217.7 50.79 207.08 50.79 195.14 50.79 183.14 70.43 202.3 96.07 208.07 96.07 208.07 96.07 216.7 96.07 216.7 96.07 222.48 96.07 241.64 70.43 241.63 70.43"/><path class="cls-7" d="M167.72,75h0a3.54,3.54,0,0,1-3.54-3.54h0a3.61,3.61,0,0,0-3.3-3.65,3.54,3.54,0,0,0-3.78,3.53v.12A3.54,3.54,0,0,1,153.56,75h0a3.62,3.62,0,0,0-3.65,3.31,3.53,3.53,0,0,0,3.53,3.77h.12a3.55,3.55,0,0,1,3.54,3.54h0a3.62,3.62,0,0,0,3.3,3.66,3.54,3.54,0,0,0,3.78-3.53v-.13a3.55,3.55,0,0,1,3.54-3.54h.12a3.54,3.54,0,0,0,3.54-3.77A3.64,3.64,0,0,0,167.72,75Z"/><path class="cls-7" d="M258.56,33.68h0a4.25,4.25,0,0,1-4.25-4.25h0a4.34,4.34,0,0,0-4-4.38,4.25,4.25,0,0,0-4.53,4.23v.15a4.25,4.25,0,0,1-4.25,4.25h0a4.35,4.35,0,0,0-4.38,4,4.25,4.25,0,0,0,4.24,4.53h.14a4.25,4.25,0,0,1,4.25,4.25h0a4.36,4.36,0,0,0,4,4.39,4.25,4.25,0,0,0,4.53-4.24v-.15a4.25,4.25,0,0,1,4.25-4.25h.14a4.25,4.25,0,0,0,4.24-4.53A4.35,4.35,0,0,0,258.56,33.68Z"/></svg>