<svg id="Layer_1" data-name="Layer 1" xmlns="http://www.w3.org/2000/svg" viewBox="0 0 300 300"><defs><style>.cls-1{fill:#f3b7bf;}.cls-2{fill:#d6cd6d;}.cls-3{fill:#9c6fa7;}.cls-4{fill:#fff;}.cls-5{fill:#b88fc1;}</style></defs><path class="cls-1" d="M46,82.84l78.29,137.62v67A12.59,12.59,0,0,0,136.9,300h27.54A12.58,12.58,0,0,0,177,287.41v-67l78.3-137.62Z"/><path class="cls-2" d="M233.8,43.72h0c0-.18,0-.31,0-.47.13-1.22.25-2.37.34-3.37a4.27,4.27,0,0,0-5-4.58c-7.74,1.45-22.38,4.61-34.92,9.69q-2.14.89-4.19,1.83c.13-.46.33-.87.45-1.34a22.44,22.44,0,0,0,.43-3.52c0,.16.05.33.06.48,0-.33,0-.72,0-1.06,0-.81.05-1.65,0-2.5S191,37,190.89,36s-.17-1.8-.3-2.73-.31-2-.5-3.05-.35-1.87-.56-2.82-.49-2.1-.76-3.16-.48-1.85-.74-2.78-.62-2.11-.95-3.16c-.27-.87-.53-1.73-.81-2.58-.37-1.1-.73-2.13-1.1-3.17-.26-.72-.51-1.45-.76-2.14-.42-1.13-.81-2.14-1.21-3.16-.2-.5-.4-1-.59-1.52-.56-1.41-1.09-2.68-1.55-3.75a3.16,3.16,0,0,0-.92-1.25,3.31,3.31,0,0,0-4.21,0c-1,.77-2.06,1.69-3.29,2.73a160.4,160.4,0,0,0-12.79,12c-5.85,6.2-11.12,13.15-12.64,19.23a37.64,37.64,0,0,0-1,5.92c0,.53,0,1,0,1.56a33.93,33.93,0,0,0,0,4.16,1.47,1.47,0,0,0,0,.21s0-.06,0-.09c.9,10.69,6.76,19.48,15.61,21.68a17.56,17.56,0,0,0,5.95.32c-.11.25-.17.5-.28.75a42.2,42.2,0,0,0-1.84,5.18c-.07.26-.17.51-.24.77a37.3,37.3,0,0,0-.95,5.52c-.05.46-.09.91-.12,1.36a33.59,33.59,0,0,0,0,5c0-.07,0-.14,0-.21a28.3,28.3,0,0,0,1.08,5.57A18.38,18.38,0,0,0,155,97.24c-8.85,8.56-7,24.8,4,36.28,8.71,9,32.18,13.52,41.86,15a3.31,3.31,0,0,0,3.8-3.67c-1-8-3.72-25.45-9.54-36.38a43.36,43.36,0,0,0,23.2-13.6C228.21,84.05,232.28,57.82,233.8,43.72Z"/><path class="cls-2" d="M42.1,98.52c-10.29,5.9-19.88,26.39-23.52,34.92a3.13,3.13,0,0,0,2.49,4.34c9.2,1.17,31.72,3.26,42-2.63,13.11-7.51,19-21.8,13.25-31.91S55.21,91,42.1,98.52Z"/><path class="cls-2" d="M281.42,133.44c-3.64-8.53-13.23-29-23.52-34.92-13.11-7.51-28.43-5.4-34.23,4.72s.14,24.4,13.25,31.91c10.29,5.89,32.81,3.8,42,2.63A3.13,3.13,0,0,0,281.42,133.44Z"/><path class="cls-2" d="M137.49,99.79a23.34,23.34,0,0,0-5-2.14,29.94,29.94,0,0,0,4.24-13.91c0,.15.07.3.08.45a37.59,37.59,0,0,0,0-5.41c0-.5-.09-1-.14-1.49a43.17,43.17,0,0,0-1.11-6.42c0-.17-.12-.34-.16-.52a48.94,48.94,0,0,0-2.21-6.2c-.19-.43-.35-.86-.55-1.29a51.39,51.39,0,0,0-3.43-6.22c-.26-.42-.55-.82-.83-1.22a54.5,54.5,0,0,0-4.77-6.14C115,39.85,96,33.27,80.33,29.21c-7.12-1.85-13.55-3.17-18-4a4.89,4.89,0,0,0-5.45,3,4.79,4.79,0,0,0-.33,2.28c.09,1,.21,2.19.34,3.42,0,.09,0,.16,0,.25h0c1.69,16,6.33,46.88,17.87,59.55,7.88,8.66,17.71,14,27.26,15.79-.65.92-1.36,1.77-1.93,2.77-6.35,11.07-2.23,36.38-.16,46.74a4.28,4.28,0,0,0,5.39,3.09c10-3.44,33.92-12.66,40.26-23.72C153.69,124.27,150.06,107,137.49,99.79Z"/><path class="cls-3" d="M87.24,77.46A12.68,12.68,0,0,0,69.77,60a12.68,12.68,0,0,0-24.7,0A12.67,12.67,0,0,0,27.61,77.46a12.68,12.68,0,0,0,0,24.71,12.67,12.67,0,0,0,17.46,17.46,12.68,12.68,0,0,0,24.7,0,12.68,12.68,0,0,0,17.47-17.46,12.68,12.68,0,0,0,0-24.71Z"/><path class="cls-3" d="M282.21,89.82a12.71,12.71,0,0,0-9.82-12.36,12.68,12.68,0,0,0-1.79-15.67h0A12.68,12.68,0,0,0,254.93,60a12.68,12.68,0,0,0-24.7,0,12.68,12.68,0,0,0-17.47,17.46,12.68,12.68,0,0,0,0,24.71,12.68,12.68,0,0,0,17.47,17.46,12.68,12.68,0,0,0,24.7,0,12.68,12.68,0,0,0,15.67-1.79h0a12.68,12.68,0,0,0,1.79-15.67A12.7,12.7,0,0,0,282.21,89.82Z"/><path class="cls-3" d="M187.5,58.56a15.94,15.94,0,0,0-22-22,15.94,15.94,0,0,0-31.06,0,16,16,0,0,0-19.72,2.25h0a16,16,0,0,0-2.25,19.72,15.94,15.94,0,0,0,0,31.07,16,16,0,0,0,2.25,19.72h0a16,16,0,0,0,19.72,2.25,15.94,15.94,0,0,0,31.06,0,15.94,15.94,0,0,0,22-22,15.94,15.94,0,0,0,0-31.07Z"/><circle class="cls-4" cx="57.42" cy="89.81" r="15.16"/><circle class="cls-4" cx="242.58" cy="89.81" r="15.16"/><circle class="cls-4" cx="150" cy="74.09" r="19.07"/><rect class="cls-5" x="124.31" y="220.46" width="52.71" height="30.19"/></svg>