<svg id="Layer_1" data-name="Layer 1" xmlns="http://www.w3.org/2000/svg" viewBox="0 0 300 300"><defs><style>.cls-1{fill:#9193c8;}.cls-2{fill:#9c6fa7;}.cls-3{fill:#f3b7bf;}.cls-4{fill:#d6cd6d;}</style></defs><path class="cls-1" d="M158.74,124.39l135-24.83a5.32,5.32,0,0,1,6.29,5.23V92.6a5.33,5.33,0,0,0-6.29-5.23l-135,24.84a5.31,5.31,0,0,0-4.36,5.23v12.19A5.33,5.33,0,0,1,158.74,124.39Z"/><path class="cls-2" d="M293.71,87.37l-135,24.84a5.31,5.31,0,0,0-4.36,5.23V232c-9.57-5.67-22.14-7.54-34.74-4.17a49.79,49.79,0,0,0-7.53,2.71l-.33.13a47,47,0,0,0-6.49,3.66l-.49.31a45.6,45.6,0,0,0-5.46,4.42l-.52.49a40.92,40.92,0,0,0-4.4,5c-.16.21-.32.41-.47.62a38.2,38.2,0,0,0-3.29,5.55c-.12.24-.25.48-.36.73a35.66,35.66,0,0,0-2.12,5.91c-.07.26-.13.52-.2.78a32.94,32.94,0,0,0-.77,4.51v0s0,0,0,.06c0,.54,0,1.07-.07,1.61,0,.27,0,.53,0,.8,0,.87,0,1.75,0,2.62,0,.37.06.73.1,1.09.08.86.2,1.71.35,2.56,0,.12,0,.24,0,.37l0-.1c.14.75.26,1.49.46,2.24,5.2,19.4,27.75,30.22,50.36,24.17,20.09-5.38,33.45-22.27,32.54-39.58h.05V137.09l112.21-20.66v88.35c-9.57-5.67-22.14-7.54-34.73-4.17a49.52,49.52,0,0,0-7.54,2.71l-.33.13a48.55,48.55,0,0,0-6.48,3.65l-.5.32a45.31,45.31,0,0,0-5.45,4.42c-.17.17-.36.32-.53.49a42.67,42.67,0,0,0-4.4,5c-.15.21-.32.41-.47.62a38.74,38.74,0,0,0-3.29,5.55c-.12.24-.24.48-.35.72a34.88,34.88,0,0,0-2.12,5.92c-.07.26-.14.52-.2.78a34.57,34.57,0,0,0-.78,4.51v0c-.05.53-.05,1.07-.08,1.61,0,.27,0,.54,0,.8,0,.87,0,1.75.06,2.62,0,.37,0,.73.09,1.1q.12,1.28.36,2.55c0,.12,0,.24,0,.37,0,0,0-.07,0-.1.15.75.26,1.49.46,2.24,5.21,19.4,27.75,30.22,50.36,24.17,19.76-5.29,33-21.72,32.58-38.73h0V92.6A5.33,5.33,0,0,0,293.71,87.37Z"/><path class="cls-3" d="M159.58,81.74l1.26-.07c.64,0,1.24-.11,1.83-.18l1.08-.14c.57-.08,1.09-.17,1.6-.27l.9-.17c.49-.1.92-.2,1.35-.31l.69-.17,1.07-.31.45-.14.82-.27.12,0,.33-.13c-12.1,0-22.94-16.42-28.56-34.58C133.11,14.57,103.14,4.73,84,1.55A121.28,121.28,0,0,0,71.37.19,3.86,3.86,0,0,0,67.28,4V119.45c-9.57-5.67-22.14-7.54-34.73-4.17A49.52,49.52,0,0,0,25,118l-.33.14a46.55,46.55,0,0,0-6.49,3.65c-.16.11-.33.2-.5.31a46.19,46.19,0,0,0-5.44,4.42l-.54.49a42.58,42.58,0,0,0-4.39,5.05c-.16.21-.32.41-.47.63a38.1,38.1,0,0,0-3.29,5.54c-.12.25-.25.48-.36.73a35.66,35.66,0,0,0-2.12,5.91c-.06.27-.13.52-.2.79a33.34,33.34,0,0,0-.76,4.43s0,0,0,0v.08c0,.56-.06,1.12-.08,1.67,0,.27,0,.54,0,.81,0,.86,0,1.73,0,2.59,0,.36.06.72.09,1.07.09.87.21,1.73.36,2.6,0,.12,0,.25,0,.37l0-.1c.14.75.26,1.5.46,2.24,5.2,19.4,27.75,30.23,50.36,24.17,20.09-5.38,33.46-22.27,32.54-39.58H84V39.79c11,.81,25.83,6,39.92,24.18,9.52,12.28,20.28,16.5,29.13,17.53l0,0,1,.06c.73.07,1.44.12,2.14.15l1.42,0C158.28,81.78,158.93,81.77,159.58,81.74Z"/><path class="cls-4" d="M257.81,30.16h0a5.37,5.37,0,0,1-5.38-5.37h0a5.48,5.48,0,0,0-5-5.54,5.37,5.37,0,0,0-5.73,5.36v.18a5.37,5.37,0,0,1-5.38,5.37h0a5.49,5.49,0,0,0-5.54,5,5.36,5.36,0,0,0,5.36,5.73h.18a5.38,5.38,0,0,1,5.38,5.37h0a5.49,5.49,0,0,0,5,5.54,5.36,5.36,0,0,0,5.73-5.35v-.19a5.38,5.38,0,0,1,5.38-5.37H258a5.38,5.38,0,0,0,5.36-5.73A5.5,5.5,0,0,0,257.81,30.16Z"/><path class="cls-4" d="M51.18,241.42h0a7.49,7.49,0,0,1-7.5-7.49h0a7.66,7.66,0,0,0-7-7.73,7.49,7.49,0,0,0-8,7.47v.26a7.49,7.49,0,0,1-7.5,7.49h0a7.66,7.66,0,0,0-7.74,7,7.49,7.49,0,0,0,7.48,8h.26a7.5,7.5,0,0,1,7.5,7.5h0a7.66,7.66,0,0,0,7,7.73,7.5,7.5,0,0,0,8-7.47v-.26a7.5,7.5,0,0,1,7.5-7.5h.26a7.49,7.49,0,0,0,7.48-8A7.67,7.67,0,0,0,51.18,241.42Z"/></svg>