<svg id="Layer_1" data-name="Layer 1" xmlns="http://www.w3.org/2000/svg" viewBox="0 0 800 800"><defs><style>.cls-1,.cls-3,.cls-4{fill:#fff;}.cls-2{fill:#231f20;}.cls-3,.cls-4{stroke:#fff;stroke-miterlimit:10;}.cls-4{stroke-width:4px;}</style></defs><path class="cls-1" d="M371.12,347.86l17.53-43.17a7.4,7.4,0,0,0-3.46-9.34l-37.31-19.23a7.36,7.36,0,0,0-6.17-.27L260,309.22a7.39,7.39,0,0,0-4.21,4.52l-13.17,39.85a7.38,7.38,0,0,0,4.07,9.09l42.75,18.54a92.17,92.17,0,1,0,81.64-33.36Zm-15.76-.42c-1.91.11-3.82.29-5.73.52l-.57-24.69,19.31-7.89Zm-11.22-56.63,20.05,10.33-21.06,8.6L329.3,296.87Zm-45.46,18.57L314.24,303l13.83,12.87-30.25,12.36Zm35.75,19.87.5,21.75a93.36,93.36,0,0,0-17.42,7.12l-14.87-15.88Zm-65.65-7.65,14.84-6.06-.86,18.87L261.71,343Zm-.09,34.51L288,348.22l16.88,18q-2.29,1.75-4.46,3.63Zm121.07,154a76.28,76.28,0,1,1,41.76-99.47A76.37,76.37,0,0,1,389.76,510.06Z"/><path class="cls-2" d="M371.12,347.86l17.53-43.17a7.4,7.4,0,0,0-3.46-9.34l-37.31-19.23a7.36,7.36,0,0,0-6.17-.27L260,309.22a7.39,7.39,0,0,0-4.21,4.52l-13.17,39.85a7.38,7.38,0,0,0,4.07,9.09l42.75,18.54a92.17,92.17,0,1,0,81.64-33.36Zm-15.76-.42c-1.91.11-3.82.29-5.73.52l-.57-24.69,19.31-7.89Zm-11.22-56.63,20.05,10.33-21.06,8.6L329.3,296.87Zm-45.46,18.57L314.24,303l13.83,12.87-30.25,12.36Zm35.75,19.87.5,21.75a93.36,93.36,0,0,0-17.42,7.12l-14.87-15.88Zm-65.65-7.65,14.84-6.06-.86,18.87L261.71,343Zm-.09,34.51L288,348.22l16.88,18q-2.29,1.75-4.46,3.63Zm121.07,154a76.28,76.28,0,1,1,41.76-99.47A76.37,76.37,0,0,1,389.76,510.06Z"/><path class="cls-1" d="M588.07,618.29c8.09-1.53,16.2-3,24.34-4.23,2.32-.36,4.63-.7,7-1l3.46-.49.7-.09h.07l2.12-.28q7.41-.95,14.83-1.66c20.88-2,42.07-2.67,62.94-.19l2,.25c.13,0,1,.13.17,0l.75.1c1.32.19,2.64.39,4,.61q3.79.62,7.54,1.42a132.91,132.91,0,0,1,14.43,3.88q3.34,1.11,6.61,2.43l.86.35c-.19-.08-.82-.36.08,0,.5.22,1,.43,1.48.66,1.12.5,2.22,1,3.32,1.56a82.93,82.93,0,0,1,11.92,7.19c.42.3.84.61,1.25.93-.8-.61.56.45.73.58.92.74,1.82,1.51,2.7,2.3,1.64,1.47,3.22,3,4.72,4.66.75.82,1.48,1.66,2.19,2.51.33.4.66.81,1,1.22-.58-.73.57.75.71,1a27.3,27.3,0,0,1,3.54,6.1c4,10.66,2.65,22.1-1.76,32.43a73.35,73.35,0,0,1-22.14,28.43c-5.69,4.45-13.34,7.21-20.31,8.85a59.59,59.59,0,0,1-19.57,1.11c-14-1.42-26.9-7.61-39.52-13.5a178.19,178.19,0,0,0-43.8-14.12c-26.29-4.72-52.87-3-79,2-20.86,4.05-41.21,10.62-62.19,14.07-1,.16-2,.32-3,.46l-.85.12c.18,0,1-.12.06,0l-1.68.2c-2.09.23-4.2.4-6.3.49a115.47,115.47,0,0,1-14.64-.58,245.2,245.2,0,0,1-36-5.64c-5.81-1.38-11.57-3-17.21-4.94a105.46,105.46,0,0,1-15-6.28c-2.34-1.2-4.63-2.5-6.84-3.91-1-.61-1.91-1.24-2.84-1.9l-1.55-1.13c-.11-.08-.75-.58-.11-.08l-.73-.58a51.56,51.56,0,0,1-5.13-4.78c-.74-.8-1.44-1.63-2.12-2.47.59.74-.2-.28-.38-.53-.37-.51-.72-1-1.06-1.57-.56-.87-1.09-1.78-1.57-2.7-.22-.43-.43-.86-.63-1.3-.12-.25-.23-.5-.34-.75.08.18.33.92,0,0a41.4,41.4,0,0,1-1.62-6l-3.49,6.15,39.84-15,5.72-2.16-4.86-1.28c18.51,15.9,46.52,11.4,68.24,6.18,27.74-6.66,54.22-17.69,80.88-27.64,11.77-4.39,23.69-8.94,36-11.5,2.65-.55,4.18-3.67,3.5-6.15a5.1,5.1,0,0,0-6.15-3.49c-10.63,2.2-20.93,6-31.09,9.67C541.58,623,529,628,516.21,632.65c-13.27,4.89-26.65,9.54-40.31,13.25-6.39,1.73-12.84,3.26-19.37,4.4a106.08,106.08,0,0,1-17.29,1.8,76.64,76.64,0,0,1-9.22-.31c-.36,0-2.76-.35-1.39-.15l-1.89-.3c-1.41-.25-2.82-.55-4.2-.92s-2.67-.77-4-1.26c-.43-.16-1.93-.81-.78-.29-.64-.28-1.28-.57-1.91-.89a34.73,34.73,0,0,1-3.3-1.89c-.58-.38-1.14-.79-1.7-1.18s.09.06.19.15c-.35-.3-.71-.58-1.06-.89-1.28-1.1-3.15-1.93-4.87-1.28l-39.84,15-5.72,2.16a5.17,5.17,0,0,0-3.49,6.15c3.66,21.64,26.27,33.54,44.94,40.24a201.91,201.91,0,0,0,36.34,9c11.51,1.83,23.53,3.6,35.22,3.22,9.48-.31,18.91-2.13,28.14-4.21,10.73-2.4,21.36-5.25,32.07-7.77,24.93-5.87,49.67-9.79,75.42-7.76a165.43,165.43,0,0,1,42.94,9.36c14.64,5.27,28.06,13.39,43.09,17.66,14.21,4,29.28,4.56,43.4-.18a62.79,62.79,0,0,0,20.78-11.28,85.52,85.52,0,0,0,13.79-15c7.63-10.43,12.9-23,13.53-36A45.83,45.83,0,0,0,783,645.13c-2.05-5.35-5.36-9.83-9.15-14.1-13.3-15-32.58-23.36-51.81-27.65-21.26-4.75-43.35-5.32-65-4.13a510.43,510.43,0,0,0-60,7.28q-5.79,1-11.55,2.12c-2.66.5-4.17,3.7-3.5,6.15A5.11,5.11,0,0,0,588.07,618.29Z"/><path class="cls-1" d="M501,126.1a234.09,234.09,0,0,0-55.33,20c-16.9,8.5-32.9,18.65-48.48,29.35-8.87,6.09-17.61,12.36-26.36,18.63-2.12,1.52-3.35,4.42-1.79,6.84,1.36,2.1,4.57,3.42,6.84,1.79,15.4-11,30.81-22.09,46.88-32.13,8-5,16.18-9.76,24.56-14.11q6.21-3.23,12.57-6.13c1-.47,2.07-.94,3.11-1.39.51-.23,1-.46,1.56-.68l.78-.34c.11-.05,1.43-.6.37-.16,2.17-.9,4.35-1.79,6.54-2.63a212.1,212.1,0,0,1,31.41-9.42,5,5,0,0,0,3.49-6.15,5.12,5.12,0,0,0-6.15-3.5Z"/><path class="cls-1" d="M561.89,165.34a446,446,0,0,0-75.8,8.58A386.27,386.27,0,0,0,416,194.3a237.18,237.18,0,0,0-33.36,16.31,5,5,0,1,0,5,8.63c4.44-2.67,9-5.15,13.63-7.46,2.38-1.19,4.77-2.34,7.19-3.45,1.23-.56,2.47-1.12,3.71-1.66l1.71-.75,1-.44c.18-.08,1.38-.6.19-.09a306.46,306.46,0,0,1,33-11.78q17.78-5.37,36-9.12,9.26-1.94,18.58-3.48,4.73-.78,9.46-1.47l4.2-.59c-1.25.17.17,0,.35,0l1.26-.17,2.52-.32c13.72-1.68,27.52-2.75,41.34-3.08a5,5,0,0,0,0-10Z"/><path class="cls-1" d="M34.15,331.13a211.79,211.79,0,0,1,25.1-14.65q3.24-1.61,6.54-3.12l3.2-1.43,1.4-.61.81-.35c.1,0,1.44-.6.41-.18q6.54-2.71,13.2-5.11c17.74-6.36,36.06-10.93,54.48-14.84,10.45-2.22,20.94-4.23,31.44-6.24,2.57-.49,4.27-3.72,3.49-6.15a5.13,5.13,0,0,0-6.15-3.49c-18.68,3.58-37.38,7.15-55.8,11.91a305.89,305.89,0,0,0-54.51,19.25,213,213,0,0,0-28.65,16.37C27,324,25.78,327,27.31,329.33c1.39,2.15,4.53,3.37,6.84,1.8Z"/><path class="cls-1" d="M22.73,400.67c8.66-8.69,17.73-17,27.12-24.87,2.4-2,4.82-4,7.27-6q1.83-1.49,3.69-2.95l1.69-1.32c.33-.27.67-.53,1-.79.09-.07,1.22-.94.35-.28q7.5-5.76,15.21-11.23a386.12,386.12,0,0,1,62.67-36.6q2.1-1,4.2-1.88l2.27-1c.27-.11,1.09-.48,0,0l1.39-.58q4.09-1.69,8.25-3.24c5.48-2,11-3.87,16.67-5.42a5,5,0,0,0-2.66-9.65c-21.95,6.07-42.87,16-62.6,27.21a450.79,450.79,0,0,0-62.56,43.35c-10.8,8.87-21.2,18.24-31.06,28.14a5,5,0,0,0,7.07,7.07Z"/><path class="cls-1" d="M334.06,142.05c-.76-.15,1.39.72.65.27-.1-.06,1,1.07.34.24-.41-.54-.92-1-1.36-1.56,1.09,1.32-.55-.81-.88-1.28-.66-1-1.3-1.95-1.94-2.94-3.36-5.25-6.52-10.64-9.77-16-7.91-13-16-26.2-26.44-37.34-7.43-8-19.39-17.36-30.44-10.08-5.35,3.52-8.47,9.36-10.83,15.13a112.76,112.76,0,0,0-5.75,20.23c-1.46,7.11-2.58,14.29-3.74,21.46a125,125,0,0,1-3.24,16.28c-.13.42-.27.84-.41,1.26-.33,1-.61.69,0,.11a2.23,2.23,0,0,0-.26.51l-.05.1c.53-.65.6-.78.21-.37,0,.11-.47.37.12-.07-.38.28-.79.53-1.19.78a82.76,82.76,0,0,1-13.63,6.26c-11.21,4.35-23.16,8.53-35.12,10.21,0,0-1.26.13-1.71.16s-.73,0-1.09,0c-1,.05.19,0,.29.1l-.28-.06c-.51-.16-.33-.08.53.23-.13-.1-.31-.14-.44-.24-.41-.31-.88-.55-1.3-.84s-1.53-1.14-.43-.29c-.49-.37-1-.76-1.43-1.15-1.07-.9-2.11-1.83-3.15-2.78-5.19-4.74-10.12-9.75-15.19-14.61A211.53,211.53,0,0,0,148,130.07c-5.27-4-11.16-7.9-17.65-9.55a17.91,17.91,0,0,0-19.3,6.53A144.9,144.9,0,0,0,100.85,142a432,432,0,0,0-27.77,54.59A554.26,554.26,0,0,0,44.8,278.93a464,464,0,0,0-14.64,99.35c-1.19,36,2.52,72.27,12.24,107A311.32,311.32,0,0,0,95.05,590.54c12.11,15.78,25.4,31.05,40.62,43.91a193.14,193.14,0,0,0,40.52,26.37c28.9,14,60.76,20.78,92.77,21.66,33,.91,66.08-4.31,97.51-14.06a339.7,339.7,0,0,0,90.15-43.28c27-18.36,51.31-40.7,70.72-67,18.35-24.86,31.92-53.55,37.47-84.05,6.6-36.26,2.75-73.55-8.89-108.39C544.34,331,525.86,298.94,503.68,270a445.12,445.12,0,0,0-72.63-74.67c-21.52-17.47-44.81-33.78-70.32-44.87-8.54-3.71-17.42-7.07-26.67-8.44-2.67-.39-5.37.67-6.15,3.49-.65,2.36.8,5.76,3.49,6.15a79.34,79.34,0,0,1,12.44,3c2.29.72,4.55,1.53,6.79,2.39,3.1,1.19,3.78,1.48,6.41,2.65a250.69,250.69,0,0,1,32.75,17.95c26.41,16.88,50.42,37.14,72.37,59.63,24.68,25.28,46.53,53.48,63.54,84.49,16.89,30.78,29,64.76,31.78,99.92,2.57,32.41-3,65.42-16.64,94.49-13.1,27.87-32.16,52.09-54.72,72.91-23.6,21.8-50.85,39.56-79.94,53.25A320.51,320.51,0,0,1,313,670.12c-30.67,4.13-62.71,3.33-92.83-4.07-29.88-7.34-57.92-21.25-81-41.73-14.78-13.12-28-28.39-39.64-44.31a307.06,307.06,0,0,1-30.33-50.94c-15.36-32.68-24.5-68.22-27.79-104.14A400.31,400.31,0,0,1,45.53,324a518,518,0,0,1,23.21-89.25A509.27,509.27,0,0,1,97.42,168.5c4-7.61,8.14-15.12,12.65-22.42,1.68-2.71,3.4-5.38,5.2-8,.71-1,1.42-2,2.15-3,.45-.6,1.3-1.6.24-.33.32-.39.62-.79.94-1.18.5-.61,1-1.23,1.57-1.8.21-.21.45-.41.65-.63.87-1-1,.47.36-.29.43-.23.84-.48,1.27-.7-1.2.62.49-.09.81-.2,1.29-.46-.48-.11.62-.12.69,0,1.36,0,2,0,.92,0,0,0-.18,0,.33,0,.66.1,1,.17.6.13,1.2.27,1.8.45s1.37.44,2,.7c.15.06.87.36.06,0,.43.18.85.38,1.27.58,12.89,6.18,23.15,17.3,33.42,27.31a177,177,0,0,0,13.35,12.34c1.92,1.53,4,3.3,6.47,3.88,3.81.91,8.28-.27,12-1.06a201.49,201.49,0,0,0,35.71-11.35c4.21-1.75,8.68-3.47,12.44-6.12A12.18,12.18,0,0,0,250,150c1.64-4.86,2.35-10.08,3.18-15.12,1.17-7.08,2.25-14.18,3.62-21.22a128.57,128.57,0,0,1,5.3-20.18,36.82,36.82,0,0,1,3.57-7.38c.33-.53.68-1,1-1.55.75-1-.44.52.07-.08.2-.25.41-.49.62-.73.38-.41.78-.8,1.18-1.18.22-.21.45-.4.68-.59-.6.5-.4.24.12,0l1.33-.75c.61-.35-1.17.34-.11,0,.22-.06.42-.15.64-.2.42-.1,2.15-.28.67-.2.58,0,1.15,0,1.72,0,1.36,0-.72-.31.6.1.43.14.87.24,1.31.37.28.08.55.2.82.29.71.25-1.1-.55,0,0,.57.28,1.13.56,1.68.87a30.53,30.53,0,0,1,3.25,2.16c.67.51-.9-.74.19.16l.7.58c.65.55,1.29,1.12,1.91,1.7a81.14,81.14,0,0,1,6.83,7.29c9.08,10.78,16.84,23.77,24.34,36.16,2.77,4.56,5.48,9.18,8.46,13.61,1.78,2.64,4.22,6.92,7.68,7.6C337.69,152.94,340.38,143.3,334.06,142.05Z"/><path class="cls-1" d="M270,244.28c2.05,5.93,4.91,12.4,10.54,15.76,6.29,3.74,13.62,1.58,19.45-2l-6.06-7.86c-.23.23-.48.44-.71.67-.8.76.9-.58,0,0-.52.34-1,.68-1.6,1l-.49.26c.68-.36-.21.07-.38.13a13.76,13.76,0,0,1-2,.55l-.34.07c-.56.09-.45.07.31,0a3.89,3.89,0,0,1-.85,0c-.28,0-.57,0-.85,0-1.28,0,0-.08,0,.05,0-.07-1.94-.34-1.9-.5s1.11.57,0-.05c-.28-.16-1.13-.77-.08,0-1.72-1.33-4-2.08-6.06-.78a5.21,5.21,0,0,0-2.29,5.65c.14.7-.07-.42-.05-.54a3.58,3.58,0,0,0,0,.65c0,.17,0,.35,0,.52,0,.59.29-1.24,0-.44a7,7,0,0,0-.3,1c.17-1.06.38-.81.12-.36-.09.15-.17.31-.27.46a2.86,2.86,0,0,0-.37.56c0-.14.74-.87.28-.36-.28.3-.55.62-.86.91l-.42.37c-.61.57-.07-.06.24-.16a7.35,7.35,0,0,0-1.07.71c-.33.2-.67.37-1,.55-.74.39-.06-.06.28-.1a2.86,2.86,0,0,0-.53.2c-.39.13-.79.25-1.2.35-.18,0-.36.06-.54.11-.59.17,1.26-.09.4-.05l-1.18,0c-1,0,1.06.29.07,0a5.82,5.82,0,0,0-1.06-.31c.29,0,1.09.61.42.13-.16-.11-.34-.21-.51-.33-2.14-1.51-5.65-.46-6.84,1.79a5.12,5.12,0,0,0,1.8,6.84c4.45,3.13,10.85,2,15.19-.75,5-3.14,8.27-8.46,7-14.46l-8.36,4.87a15.68,15.68,0,0,0,12.74,3.06A19.36,19.36,0,0,0,301,257.29a5,5,0,0,0-6.06-7.85c-.69.42-1.39.82-2.1,1.19l-1,.5c-1,.5.85-.29-.1,0-.61.22-1.21.44-1.84.6-.29.08-.58.15-.88.21-.9.18-.32-.06.2,0-.51-.06-1.08.08-1.6.06-.25,0-.51,0-.77,0,1.47,0,.82.14.35,0a5.75,5.75,0,0,0-1.39-.42c.6-.18,1,.53.32.11-.25-.15-.5-.27-.74-.43l-.6-.41c-.41-.25,1,.89.23.16-.38-.36-.75-.7-1.1-1.08-.18-.2-.34-.42-.53-.61s.73,1,.11.14c-.32-.47-.65-.94-.95-1.44a31.29,31.29,0,0,1-1.72-3.3c-.07-.16-.44-1.23-.21-.46s-.13-.35-.19-.51c-.27-.7-.53-1.42-.78-2.14-.86-2.46-3.47-4.36-6.15-3.49-2.44.79-4.41,3.5-3.49,6.15Z"/><path class="cls-3" d="M225.43,233.92a9,9,0,1,0,9-9A9,9,0,0,0,225.43,233.92Z"/><path class="cls-3" d="M287.14,214.93a9,9,0,1,0,9-9A9,9,0,0,0,287.14,214.93Z"/><path class="cls-4" d="M174,401.55c5.89,5.45,14.66,6.43,22.25,7.69a229.7,229.7,0,0,0,26.68,2.87,227.75,227.75,0,0,0,53-3.7c3.33-.63,6.88-1.62,10.3-1.11s5.2,2.85,5.78,6.1c1.16,6.5-2.2,13.3-6.52,17.94-5.17,5.57-12.13,8.78-19.38,10.69-8.13,2.14-16.63,2.94-25,3.51A228.86,228.86,0,0,1,187.88,443q-3.34-.55-6.68-1.22a2.57,2.57,0,0,0-3.08,1.75,2.52,2.52,0,0,0,1.75,3.08,235.42,235.42,0,0,0,55.7,4.22A185.86,185.86,0,0,0,262.31,448c8.17-1.57,16.23-4.35,22.83-9.53,5.72-4.49,10.37-11,11.65-18.29a19.61,19.61,0,0,0-1-11.49,11.09,11.09,0,0,0-8.73-6.3c-3.94-.56-7.85.31-11.71,1.05q-6.63,1.28-13.33,2.14a224.82,224.82,0,0,1-55.11.17c-4.47-.53-8.92-1.22-13.34-2-3.88-.72-8-1.36-11.61-2.91a15.45,15.45,0,0,1-4.42-2.79c-2.36-2.18-5.9,1.34-3.53,3.53Z"/><path class="cls-4" d="M399.55,291.58a285.25,285.25,0,0,1,3.51,51.64q-.15,6.46-.58,12.93c-.28,4.05-.75,8.09-1,12.14-.42,7,.6,14.56,6.34,19.25,4.89,4,11.35,5.2,17.5,4.25,6.5-1,12.23-5,16.4-10,4.66-5.53,7.77-12.13,10.13-18.91a98.36,98.36,0,0,0,4.85-23.21c1.46-15.86-.44-31.9-3.73-47.42-.4-1.89-.83-3.77-1.27-5.65-.74-3.13-5.56-1.81-4.82,1.33,3.44,14.63,5.72,29.62,5.25,44.68-.44,14.13-3.3,29.17-10.85,41.32-3.11,5-7.51,9.89-13.17,12a18.28,18.28,0,0,1-15.06-.82,12.23,12.23,0,0,1-5.16-5.46c-1.46-3-1.6-6.56-1.48-9.86.12-3.74.6-7.47.88-11.2q.48-6.21.68-12.43a291.69,291.69,0,0,0-2.7-49.86c-.28-2-.59-4-.91-6a2.52,2.52,0,0,0-3.08-1.74,2.55,2.55,0,0,0-1.74,3.07Z"/><path class="cls-4" d="M522.33,426.47c-9.69,7.93-21.5,12.84-33.69,15.4A104.64,104.64,0,0,1,469.72,444c-7.05.18-14.18-.84-21.17.29-5.94.95-12.08,4.16-14.74,9.81-2.83,6-1.67,13.17,1.84,18.63s8.72,9.28,14.12,12.52a80.88,80.88,0,0,0,18,7.95,82,82,0,0,0,43.14,1.21c3.12-.77,1.8-5.59-1.33-4.82a76.67,76.67,0,0,1-36.08,0,75.74,75.74,0,0,1-17.23-6.42c-5.18-2.69-10.36-5.9-14.28-10.29-3.68-4.12-6-9.93-4.19-15.4,1.72-5.27,7.46-7.76,12.55-8.43a61.09,61.09,0,0,1,10.39-.14c3.19.12,6.39.18,9.58.08a112.89,112.89,0,0,0,18.43-2.05c13.51-2.67,26.41-8.18,37.1-16.93a2.52,2.52,0,0,0,0-3.54,2.56,2.56,0,0,0-3.53,0Z"/><path class="cls-4" d="M256.26,551.63a123,123,0,0,0,38.51-10.08A117.58,117.58,0,0,0,312,532.12c5.55-3.68,10.8-7.9,16.82-10.82,5.46-2.63,12.07-4,17.9-1.8,4.85,1.86,8.46,6.31,10.29,11,2.38,6.18,2.08,13,.71,19.39a76.38,76.38,0,0,1-5.93,17.15,77.6,77.6,0,0,1-25,29.8,2.56,2.56,0,0,0-.89,3.42,2.52,2.52,0,0,0,3.42.9,82.63,82.63,0,0,0,24.8-27.74,85,85,0,0,0,7.19-17.33c2.07-7.13,3.19-14.65,1.88-22a26.83,26.83,0,0,0-8.57-15.56c-5.23-4.45-11.82-5.82-18.52-4.78-6.91,1.08-13.06,4.68-18.74,8.58a186,186,0,0,1-17.45,11.14,116.34,116.34,0,0,1-43.65,13.13,2.57,2.57,0,0,0-2.5,2.5,2.51,2.51,0,0,0,2.5,2.5Z"/></svg>